{"title":"Bang Bang 2014 Hindi DVDSCR-Rip x264 MP3-Mafiaking","uid":11146517,"size":734914447,"categoryP":"video","categoryS":"movies","magnet":"?xt=urn:btih:c6b1d87c9b3f841b0afd7991148b21583b63792c&amp;dn=Bang+Bang+2014+Hindi+DVDSCR-Rip+x264+MP3-Mafiaking&amp;tr=udp%3A%2F%2Ftracker.openbittorrent.com%3A80&amp;tr=udp%3A%2F%2Fopen.demonii.com%3A1337&amp;tr=udp%3A%2F%2Ftracker.coppersurfer.tk%3A6969&amp;tr=udp%3A%2F%2Fexodus.desync.com%3A6969","seeders":4,"leechers":2,"uploader":"HeroMaster","files":-1,"time":1412270160,"description":":::::::::: TEAMTNT AND MAFIAKING PRESENTS :::::::::\n\n  &lt;a href=&quot;\nhttp://i.imgur.com/f5ATQeg.jpg&quot; rel=&quot;nofollow&quot; target=&quot;_NEW&quot;&gt;\nhttp://i.imgur.com/f5ATQeg.jpg&lt;/a&gt;\n\n\n:: *BLocKBusTeR MoViE - 2014* ::\n\n\n:::: Bang Bang 2014 Hindi DVDSCR-Rip x264 MP3 ::::\n\n\n::Information::\n\n\nBANG BANG\n(2014)\n[1CD] DVDSCR Rip X264 Mp3 \nTEAMTNT Exclusive\n\n\nMovie:............Bang Bang\nGenre:............Action | Comedy\nSource: ..........DVDSCR @ D3Sim\nYear:.............2014\n\n\n::More Information::\n\n\nGeneral\nFormat : Matroska\nFormat version : Version 4 / Version 2\nFile size : 696 MiB\nDuration : 2h 31mn\nOverall bit rate : 642 Kbps\n\n\nVideo\nID : 1\nFormat : AVC\nFormat/Info : Advanced Video Codec\nFormat profile : &lt;a class=&quot;__cf_email__&quot; href=&quot;/cdn-cgi/l/email-protection&quot; data-cfemail=&quot;98d0f1fff0d8d4acb6a9&quot;&gt;[email&amp;#160;protected]&lt;/a&gt;&lt;script cf-hash='f9e31' type=&quot;text/javascript&quot;&gt;\n/* &lt;![CDATA[ */!function(){try{var t=&quot;currentScript&quot;in document?document.currentScript:function(){for(var t=document.getElementsByTagName(&quot;script&quot;),e=t.length;e--;)if(t[e].getAttribute(&quot;cf-hash&quot;))return t[e]}();if(t&amp;&amp;t.previousSibling){var e,r,n,i,c=t.previousSibling,a=c.getAttribute(&quot;data-cfemail&quot;);if(a){for(e=&quot;&quot;,r=parseInt(a.substr(0,2),16),n=2;a.length-n;n+=2)i=parseInt(a.substr(n,2),16)^r,e+=String.fromCharCode(i);e=document.createTextNode(e),c.parentNode.replaceChild(e,c)}}}catch(u){}}();/* ]]&gt; */&lt;/script&gt;\nFormat settings, CABAC : Yes\nFormat settings, ReFrames : 4 frames\nCodec ID : V_MPEG4/ISO/AVC\nDuration : 2h 31mn\nBit rate : 576 Kbps\nWidth : 640 pixels\nHeight : 272 pixels\nDisplay aspect ratio : 2.35:1\nFrame rate mode : Constant\nFrame rate : 25.000 fps\nColor space : YUV\nChroma subsampling : 4:2:0\nBit depth : 8 bits\nScan type : Progressive\nBits/(Pixel*Frame) : 0.132\nStream size : 613 MiB (88%)\nTitle : Mafiaking\nLanguage : Hindi\nDefault : Yes\nForced : No\n\n\nAudio\nID : 2\nFormat : MPEG Audio\nFormat version : Version 2\nFormat profile : Layer 3\nMode : Joint stereo\nMode extension : MS Stereo\nCodec ID : A_MPEG/L3\nCodec ID/Hint : MP3\nDuration : 2h 31mn\nBit rate mode : Constant\nBit rate : 64.0 Kbps\nChannel(s) : 2 channels\nSampling rate : 24.0 KHz\nCompression mode : Lossy\nStream size : 69.4 MiB (10%)\nTitle : Mafiaking\nWriting library : LAME3.99r\nLanguage : Hindi\nDefault : Yes\nForced : No\n\n\n::IMDB::\n\n &lt;a href=&quot;\nhttp://www.imdb.com/title/tt2905838/&quot; rel=&quot;nofollow&quot; target=&quot;_NEW&quot;&gt;\nhttp://www.imdb.com/title/tt2905838/&lt;/a&gt;\n\n\n::Greetz and Respect::\n\n\nALL CREDIT GOES TO Mafiaking for Encoding and Distribution.\n\n\n::Notes::\n\n\nExclusive blockbuster movie of the year packed with thrill\n\nand excitement, so get ready guys, 5, 4, 3, 2, 1, BANG BANG!\n\n\n::Poster::\n\n &lt;a href=&quot;\nhttp://i.imgur.com/u6t8JTw.jpg&quot; rel=&quot;nofollow&quot; target=&quot;_NEW&quot;&gt;\nhttp://i.imgur.com/u6t8JTw.jpg&lt;/a&gt;\n\n\n::Screenshots::\n\n &lt;a href=&quot;\nhttp://i.imgur.com/PviHlaB.jpg&quot; rel=&quot;nofollow&quot; target=&quot;_NEW&quot;&gt;\nhttp://i.imgur.com/PviHlaB.jpg&lt;/a&gt;\n\n &lt;a href=&quot;\nhttp://i.imgur.com/bpjYdpk.jpg&quot; rel=&quot;nofollow&quot; target=&quot;_NEW&quot;&gt;\nhttp://i.imgur.com/bpjYdpk.jpg&lt;/a&gt;\n\n &lt;a href=&quot;\nhttp://i.imgur.com/QAofUk1.jpg&quot; rel=&quot;nofollow&quot; target=&quot;_NEW&quot;&gt;\nhttp://i.imgur.com/QAofUk1.jpg&lt;/a&gt;\n\n\nSEED AND ENJOY!","torrent":{"xt":"urn:btih:c6b1d87c9b3f841b0afd7991148b21583b63792c","amp;dn":"Bang+Bang+2014+Hindi+DVDSCR-Rip+x264+MP3-Mafiaking","amp;tr":["udp%3A%2F%2Ftracker.openbittorrent.com%3A80","udp%3A%2F%2Fopen.demonii.com%3A1337","udp%3A%2F%2Ftracker.coppersurfer.tk%3A6969","udp%3A%2F%2Fexodus.desync.com%3A6969"],"infoHash":"c6b1d87c9b3f841b0afd7991148b21583b63792c","infoHashBuffer":{"type":"Buffer","data":[198,177,216,124,155,63,132,27,10,253,121,145,20,139,33,88,59,99,121,44]},"announce":[],"urlList":[]}}